<?xml version="1.0" encoding="utf-8" standalone="no"?>
<!DOCTYPE svg PUBLIC "-//W3C//DTD SVG 1.1//EN"
  "http://www.w3.org/Graphics/SVG/1.1/DTD/svg11.dtd">
<!-- Created with matplotlib (http://matplotlib.org/) -->
<svg height="360pt" version="1.1" viewBox="0 0 504 360" width="504pt" xmlns="http://www.w3.org/2000/svg" xmlns:xlink="http://www.w3.org/1999/xlink">
 <defs>
  <style type="text/css">
*{stroke-linecap:butt;stroke-linejoin:round;}
  </style>
 </defs>
 <g id="figure_1">
  <g id="patch_1">
   <path d="M 0 360 
L 504 360 
L 504 0 
L 0 0 
z
" style="fill:#ffffff;"/>
  </g>
  <g id="axes_1">
   <g id="patch_2">
    <path d="M 63 320.4 
L 453.6 320.4 
L 453.6 43.2 
L 63 43.2 
z
" style="fill:#ffffff;"/>
   </g>
   <g id="matplotlib.axis_1">
    <g id="xtick_1">
     <g id="line2d_1">
      <defs>
       <path d="M 0 0 
L 0 3.5 
" id="m999d38ba00" style="stroke:#000000;stroke-width:0.8;"/>
      </defs>
      <g>
       <use style="stroke:#000000;stroke-width:0.8;" x="63.243213" xlink:href="#m999d38ba00" y="320.4"/>
      </g>
     </g>
    </g>
    <g id="xtick_2">
     <g id="line2d_2">
      <g>
       <use style="stroke:#000000;stroke-width:0.8;" x="80.754545" xlink:href="#m999d38ba00" y="320.4"/>
      </g>
     </g>
     <g id="text_1">
      <!-- Jan -->
      <defs>
       <path d="M 9.8125 72.90625 
L 19.671875 72.90625 
L 19.671875 5.078125 
Q 19.671875 -8.109375 14.671875 -14.0625 
Q 9.671875 -20.015625 -1.421875 -20.015625 
L -5.171875 -20.015625 
L -5.171875 -11.71875 
L -2.09375 -11.71875 
Q 4.4375 -11.71875 7.125 -8.046875 
Q 9.8125 -4.390625 9.8125 5.078125 
z
" id="DejaVuSans-4a"/>
       <path d="M 34.28125 27.484375 
Q 23.390625 27.484375 19.1875 25 
Q 14.984375 22.515625 14.984375 16.5 
Q 14.984375 11.71875 18.140625 8.90625 
Q 21.296875 6.109375 26.703125 6.109375 
Q 34.1875 6.109375 38.703125 11.40625 
Q 43.21875 16.703125 43.21875 25.484375 
L 43.21875 27.484375 
z
M 52.203125 31.203125 
L 52.203125 0 
L 43.21875 0 
L 43.21875 8.296875 
Q 40.140625 3.328125 35.546875 0.953125 
Q 30.953125 -1.421875 24.3125 -1.421875 
Q 15.921875 -1.421875 10.953125 3.296875 
Q 6 8.015625 6 15.921875 
Q 6 25.140625 12.171875 29.828125 
Q 18.359375 34.515625 30.609375 34.515625 
L 43.21875 34.515625 
L 43.21875 35.40625 
Q 43.21875 41.609375 39.140625 45 
Q 35.0625 48.390625 27.6875 48.390625 
Q 23 48.390625 18.546875 47.265625 
Q 14.109375 46.140625 10.015625 43.890625 
L 10.015625 52.203125 
Q 14.9375 54.109375 19.578125 55.046875 
Q 24.21875 56 28.609375 56 
Q 40.484375 56 46.34375 49.84375 
Q 52.203125 43.703125 52.203125 31.203125 
z
" id="DejaVuSans-61"/>
       <path d="M 54.890625 33.015625 
L 54.890625 0 
L 45.90625 0 
L 45.90625 32.71875 
Q 45.90625 40.484375 42.875 44.328125 
Q 39.84375 48.1875 33.796875 48.1875 
Q 26.515625 48.1875 22.3125 43.546875 
Q 18.109375 38.921875 18.109375 30.90625 
L 18.109375 0 
L 9.078125 0 
L 9.078125 54.6875 
L 18.109375 54.6875 
L 18.109375 46.1875 
Q 21.34375 51.125 25.703125 53.5625 
Q 30.078125 56 35.796875 56 
Q 45.21875 56 50.046875 50.171875 
Q 54.890625 44.34375 54.890625 33.015625 
z
" id="DejaVuSans-6e"/>
      </defs>
      <g transform="translate(73.046733 334.998438)scale(0.1 -0.1)">
       <use xlink:href="#DejaVuSans-4a"/>
       <use x="29.492188" xlink:href="#DejaVuSans-61"/>
       <use x="90.771484" xlink:href="#DejaVuSans-6e"/>
      </g>
      <!-- 1915 -->
      <defs>
       <path d="M 12.40625 8.296875 
L 28.515625 8.296875 
L 28.515625 63.921875 
L 10.984375 60.40625 
L 10.984375 69.390625 
L 28.421875 72.90625 
L 38.28125 72.90625 
L 38.28125 8.296875 
L 54.390625 8.296875 
L 54.390625 0 
L 12.40625 0 
z
" id="DejaVuSans-31"/>
       <path d="M 10.984375 1.515625 
L 10.984375 10.5 
Q 14.703125 8.734375 18.5 7.8125 
Q 22.3125 6.890625 25.984375 6.890625 
Q 35.75 6.890625 40.890625 13.453125 
Q 46.046875 20.015625 46.78125 33.40625 
Q 43.953125 29.203125 39.59375 26.953125 
Q 35.25 24.703125 29.984375 24.703125 
Q 19.046875 24.703125 12.671875 31.3125 
Q 6.296875 37.9375 6.296875 49.421875 
Q 6.296875 60.640625 12.9375 67.421875 
Q 19.578125 74.21875 30.609375 74.21875 
Q 43.265625 74.21875 49.921875 64.515625 
Q 56.59375 54.828125 56.59375 36.375 
Q 56.59375 19.140625 48.40625 8.859375 
Q 40.234375 -1.421875 26.421875 -1.421875 
Q 22.703125 -1.421875 18.890625 -0.6875 
Q 15.09375 0.046875 10.984375 1.515625 
z
M 30.609375 32.421875 
Q 37.25 32.421875 41.125 36.953125 
Q 45.015625 41.5 45.015625 49.421875 
Q 45.015625 57.28125 41.125 61.84375 
Q 37.25 66.40625 30.609375 66.40625 
Q 23.96875 66.40625 20.09375 61.84375 
Q 16.21875 57.28125 16.21875 49.421875 
Q 16.21875 41.5 20.09375 36.953125 
Q 23.96875 32.421875 30.609375 32.421875 
z
" id="DejaVuSans-39"/>
       <path d="M 10.796875 72.90625 
L 49.515625 72.90625 
L 49.515625 64.59375 
L 19.828125 64.59375 
L 19.828125 46.734375 
Q 21.96875 47.46875 24.109375 47.828125 
Q 26.265625 48.1875 28.421875 48.1875 
Q 40.625 48.1875 47.75 41.5 
Q 54.890625 34.8125 54.890625 23.390625 
Q 54.890625 11.625 47.5625 5.09375 
Q 40.234375 -1.421875 26.90625 -1.421875 
Q 22.3125 -1.421875 17.546875 -0.640625 
Q 12.796875 0.140625 7.71875 1.703125 
L 7.71875 11.625 
Q 12.109375 9.234375 16.796875 8.0625 
Q 21.484375 6.890625 26.703125 6.890625 
Q 35.15625 6.890625 40.078125 11.328125 
Q 45.015625 15.765625 45.015625 23.390625 
Q 45.015625 31 40.078125 35.4375 
Q 35.15625 39.890625 26.703125 39.890625 
Q 22.75 39.890625 18.8125 39.015625 
Q 14.890625 38.140625 10.796875 36.28125 
z
" id="DejaVuSans-35"/>
      </defs>
      <g transform="translate(68.029545 346.19625)scale(0.1 -0.1)">
       <use xlink:href="#DejaVuSans-31"/>
       <use x="63.623047" xlink:href="#DejaVuSans-39"/>
       <use x="127.246094" xlink:href="#DejaVuSans-31"/>
       <use x="190.869141" xlink:href="#DejaVuSans-35"/>
      </g>
     </g>
    </g>
    <g id="xtick_3">
     <g id="line2d_3">
      <g>
       <use style="stroke:#000000;stroke-width:0.8;" x="124.532877" xlink:href="#m999d38ba00" y="320.4"/>
      </g>
     </g>
     <g id="text_2">
      <!-- Apr -->
      <defs>
       <path d="M 34.1875 63.1875 
L 20.796875 26.90625 
L 47.609375 26.90625 
z
M 28.609375 72.90625 
L 39.796875 72.90625 
L 67.578125 0 
L 57.328125 0 
L 50.6875 18.703125 
L 17.828125 18.703125 
L 11.1875 0 
L 0.78125 0 
z
" id="DejaVuSans-41"/>
       <path d="M 18.109375 8.203125 
L 18.109375 -20.796875 
L 9.078125 -20.796875 
L 9.078125 54.6875 
L 18.109375 54.6875 
L 18.109375 46.390625 
Q 20.953125 51.265625 25.265625 53.625 
Q 29.59375 56 35.59375 56 
Q 45.5625 56 51.78125 48.09375 
Q 58.015625 40.1875 58.015625 27.296875 
Q 58.015625 14.40625 51.78125 6.484375 
Q 45.5625 -1.421875 35.59375 -1.421875 
Q 29.59375 -1.421875 25.265625 0.953125 
Q 20.953125 3.328125 18.109375 8.203125 
z
M 48.6875 27.296875 
Q 48.6875 37.203125 44.609375 42.84375 
Q 40.53125 48.484375 33.40625 48.484375 
Q 26.265625 48.484375 22.1875 42.84375 
Q 18.109375 37.203125 18.109375 27.296875 
Q 18.109375 17.390625 22.1875 11.75 
Q 26.265625 6.109375 33.40625 6.109375 
Q 40.53125 6.109375 44.609375 11.75 
Q 48.6875 17.390625 48.6875 27.296875 
z
" id="DejaVuSans-70"/>
       <path d="M 41.109375 46.296875 
Q 39.59375 47.171875 37.8125 47.578125 
Q 36.03125 48 33.890625 48 
Q 26.265625 48 22.1875 43.046875 
Q 18.109375 38.09375 18.109375 28.8125 
L 18.109375 0 
L 9.078125 0 
L 9.078125 54.6875 
L 18.109375 54.6875 
L 18.109375 46.1875 
Q 20.953125 51.171875 25.484375 53.578125 
Q 30.03125 56 36.53125 56 
Q 37.453125 56 38.578125 55.875 
Q 39.703125 55.765625 41.0625 55.515625 
z
" id="DejaVuSans-72"/>
      </defs>
      <g transform="translate(115.882877 334.998438)scale(0.1 -0.1)">
       <use xlink:href="#DejaVuSans-41"/>
       <use x="68.408203" xlink:href="#DejaVuSans-70"/>
       <use x="131.884766" xlink:href="#DejaVuSans-72"/>
      </g>
     </g>
    </g>
    <g id="xtick_4">
     <g id="line2d_4">
      <g>
       <use style="stroke:#000000;stroke-width:0.8;" x="168.797634" xlink:href="#m999d38ba00" y="320.4"/>
      </g>
     </g>
     <g id="text_3">
      <!-- Jul -->
      <defs>
       <path d="M 8.5 21.578125 
L 8.5 54.6875 
L 17.484375 54.6875 
L 17.484375 21.921875 
Q 17.484375 14.15625 20.5 10.265625 
Q 23.53125 6.390625 29.59375 6.390625 
Q 36.859375 6.390625 41.078125 11.03125 
Q 45.3125 15.671875 45.3125 23.6875 
L 45.3125 54.6875 
L 54.296875 54.6875 
L 54.296875 0 
L 45.3125 0 
L 45.3125 8.40625 
Q 42.046875 3.421875 37.71875 1 
Q 33.40625 -1.421875 27.6875 -1.421875 
Q 18.265625 -1.421875 13.375 4.4375 
Q 8.5 10.296875 8.5 21.578125 
z
M 31.109375 56 
z
" id="DejaVuSans-75"/>
       <path d="M 9.421875 75.984375 
L 18.40625 75.984375 
L 18.40625 0 
L 9.421875 0 
z
" id="DejaVuSans-6c"/>
      </defs>
      <g transform="translate(162.764821 334.998438)scale(0.1 -0.1)">
       <use xlink:href="#DejaVuSans-4a"/>
       <use x="29.492188" xlink:href="#DejaVuSans-75"/>
       <use x="92.871094" xlink:href="#DejaVuSans-6c"/>
      </g>
     </g>
    </g>
    <g id="xtick_5">
     <g id="line2d_5">
      <g>
       <use style="stroke:#000000;stroke-width:0.8;" x="213.548817" xlink:href="#m999d38ba00" y="320.4"/>
      </g>
     </g>
     <g id="text_4">
      <!-- Oct -->
      <defs>
       <path d="M 39.40625 66.21875 
Q 28.65625 66.21875 22.328125 58.203125 
Q 16.015625 50.203125 16.015625 36.375 
Q 16.015625 22.609375 22.328125 14.59375 
Q 28.65625 6.59375 39.40625 6.59375 
Q 50.140625 6.59375 56.421875 14.59375 
Q 62.703125 22.609375 62.703125 36.375 
Q 62.703125 50.203125 56.421875 58.203125 
Q 50.140625 66.21875 39.40625 66.21875 
z
M 39.40625 74.21875 
Q 54.734375 74.21875 63.90625 63.9375 
Q 73.09375 53.65625 73.09375 36.375 
Q 73.09375 19.140625 63.90625 8.859375 
Q 54.734375 -1.421875 39.40625 -1.421875 
Q 24.03125 -1.421875 14.8125 8.828125 
Q 5.609375 19.09375 5.609375 36.375 
Q 5.609375 53.65625 14.8125 63.9375 
Q 24.03125 74.21875 39.40625 74.21875 
z
" id="DejaVuSans-4f"/>
       <path d="M 48.78125 52.59375 
L 48.78125 44.1875 
Q 44.96875 46.296875 41.140625 47.34375 
Q 37.3125 48.390625 33.40625 48.390625 
Q 24.65625 48.390625 19.8125 42.84375 
Q 14.984375 37.3125 14.984375 27.296875 
Q 14.984375 17.28125 19.8125 11.734375 
Q 24.65625 6.203125 33.40625 6.203125 
Q 37.3125 6.203125 41.140625 7.25 
Q 44.96875 8.296875 48.78125 10.40625 
L 48.78125 2.09375 
Q 45.015625 0.34375 40.984375 -0.53125 
Q 36.96875 -1.421875 32.421875 -1.421875 
Q 20.0625 -1.421875 12.78125 6.34375 
Q 5.515625 14.109375 5.515625 27.296875 
Q 5.515625 40.671875 12.859375 48.328125 
Q 20.21875 56 33.015625 56 
Q 37.15625 56 41.109375 55.140625 
Q 45.0625 54.296875 48.78125 52.59375 
z
" id="DejaVuSans-63"/>
       <path d="M 18.3125 70.21875 
L 18.3125 54.6875 
L 36.8125 54.6875 
L 36.8125 47.703125 
L 18.3125 47.703125 
L 18.3125 18.015625 
Q 18.3125 11.328125 20.140625 9.421875 
Q 21.96875 7.515625 27.59375 7.515625 
L 36.8125 7.515625 
L 36.8125 0 
L 27.59375 0 
Q 17.1875 0 13.234375 3.875 
Q 9.28125 7.765625 9.28125 18.015625 
L 9.28125 47.703125 
L 2.6875 47.703125 
L 2.6875 54.6875 
L 9.28125 54.6875 
L 9.28125 70.21875 
z
" id="DejaVuSans-74"/>
      </defs>
      <g transform="translate(204.903504 334.998438)scale(0.1 -0.1)">
       <use xlink:href="#DejaVuSans-4f"/>
       <use x="78.710938" xlink:href="#DejaVuSans-63"/>
       <use x="133.691406" xlink:href="#DejaVuSans-74"/>
      </g>
     </g>
    </g>
    <g id="xtick_6">
     <g id="line2d_6">
      <g>
       <use style="stroke:#000000;stroke-width:0.8;" x="258.3" xlink:href="#m999d38ba00" y="320.4"/>
      </g>
     </g>
     <g id="text_5">
      <!-- Jan -->
      <g transform="translate(250.592187 334.998438)scale(0.1 -0.1)">
       <use xlink:href="#DejaVuSans-4a"/>
       <use x="29.492188" xlink:href="#DejaVuSans-61"/>
       <use x="90.771484" xlink:href="#DejaVuSans-6e"/>
      </g>
      <!-- 1916 -->
      <defs>
       <path d="M 33.015625 40.375 
Q 26.375 40.375 22.484375 35.828125 
Q 18.609375 31.296875 18.609375 23.390625 
Q 18.609375 15.53125 22.484375 10.953125 
Q 26.375 6.390625 33.015625 6.390625 
Q 39.65625 6.390625 43.53125 10.953125 
Q 47.40625 15.53125 47.40625 23.390625 
Q 47.40625 31.296875 43.53125 35.828125 
Q 39.65625 40.375 33.015625 40.375 
z
M 52.59375 71.296875 
L 52.59375 62.3125 
Q 48.875 64.0625 45.09375 64.984375 
Q 41.3125 65.921875 37.59375 65.921875 
Q 27.828125 65.921875 22.671875 59.328125 
Q 17.53125 52.734375 16.796875 39.40625 
Q 19.671875 43.65625 24.015625 45.921875 
Q 28.375 48.1875 33.59375 48.1875 
Q 44.578125 48.1875 50.953125 41.515625 
Q 57.328125 34.859375 57.328125 23.390625 
Q 57.328125 12.15625 50.6875 5.359375 
Q 44.046875 -1.421875 33.015625 -1.421875 
Q 20.359375 -1.421875 13.671875 8.265625 
Q 6.984375 17.96875 6.984375 36.375 
Q 6.984375 53.65625 15.1875 63.9375 
Q 23.390625 74.21875 37.203125 74.21875 
Q 40.921875 74.21875 44.703125 73.484375 
Q 48.484375 72.75 52.59375 71.296875 
z
" id="DejaVuSans-36"/>
      </defs>
      <g transform="translate(245.575 346.19625)scale(0.1 -0.1)">
       <use xlink:href="#DejaVuSans-31"/>
       <use x="63.623047" xlink:href="#DejaVuSans-39"/>
       <use x="127.246094" xlink:href="#DejaVuSans-31"/>
       <use x="190.869141" xlink:href="#DejaVuSans-36"/>
      </g>
     </g>
    </g>
    <g id="xtick_7">
     <g id="line2d_7">
      <g>
       <use style="stroke:#000000;stroke-width:0.8;" x="302.564757" xlink:href="#m999d38ba00" y="320.4"/>
      </g>
     </g>
     <g id="text_6">
      <!-- Apr -->
      <g transform="translate(293.914757 334.998438)scale(0.1 -0.1)">
       <use xlink:href="#DejaVuSans-41"/>
       <use x="68.408203" xlink:href="#DejaVuSans-70"/>
       <use x="131.884766" xlink:href="#DejaVuSans-72"/>
      </g>
     </g>
    </g>
    <g id="xtick_8">
     <g id="line2d_8">
      <g>
       <use style="stroke:#000000;stroke-width:0.8;" x="346.829514" xlink:href="#m999d38ba00" y="320.4"/>
      </g>
     </g>
     <g id="text_7">
      <!-- Jul -->
      <g transform="translate(340.796702 334.998438)scale(0.1 -0.1)">
       <use xlink:href="#DejaVuSans-4a"/>
       <use x="29.492188" xlink:href="#DejaVuSans-75"/>
       <use x="92.871094" xlink:href="#DejaVuSans-6c"/>
      </g>
     </g>
    </g>
    <g id="xtick_9">
     <g id="line2d_9">
      <g>
       <use style="stroke:#000000;stroke-width:0.8;" x="391.580697" xlink:href="#m999d38ba00" y="320.4"/>
      </g>
     </g>
     <g id="text_8">
      <!-- Oct -->
      <g transform="translate(382.935385 334.998438)scale(0.1 -0.1)">
       <use xlink:href="#DejaVuSans-4f"/>
       <use x="78.710938" xlink:href="#DejaVuSans-63"/>
       <use x="133.691406" xlink:href="#DejaVuSans-74"/>
      </g>
     </g>
    </g>
    <g id="xtick_10">
     <g id="line2d_10">
      <g>
       <use style="stroke:#000000;stroke-width:0.8;" x="436.33188" xlink:href="#m999d38ba00" y="320.4"/>
      </g>
     </g>
     <g id="text_9">
      <!-- Jan -->
      <g transform="translate(428.624068 334.998438)scale(0.1 -0.1)">
       <use xlink:href="#DejaVuSans-4a"/>
       <use x="29.492188" xlink:href="#DejaVuSans-61"/>
       <use x="90.771484" xlink:href="#DejaVuSans-6e"/>
      </g>
      <!-- 1917 -->
      <defs>
       <path d="M 8.203125 72.90625 
L 55.078125 72.90625 
L 55.078125 68.703125 
L 28.609375 0 
L 18.3125 0 
L 43.21875 64.59375 
L 8.203125 64.59375 
z
" id="DejaVuSans-37"/>
      </defs>
      <g transform="translate(423.60688 346.19625)scale(0.1 -0.1)">
       <use xlink:href="#DejaVuSans-31"/>
       <use x="63.623047" xlink:href="#DejaVuSans-39"/>
       <use x="127.246094" xlink:href="#DejaVuSans-31"/>
       <use x="190.869141" xlink:href="#DejaVuSans-37"/>
      </g>
     </g>
    </g>
    <g id="xtick_11">
     <g id="line2d_11">
      <g>
       <use style="stroke:#000000;stroke-width:0.8;" x="453.843213" xlink:href="#m999d38ba00" y="320.4"/>
      </g>
     </g>
    </g>
    <g id="xtick_12">
     <g id="line2d_12">
      <defs>
       <path d="M 0 0 
L 0 2 
" id="m0e764f12a8" style="stroke:#000000;stroke-width:0.6;"/>
      </defs>
      <g>
       <use style="stroke:#000000;stroke-width:0.6;" x="65.675342" xlink:href="#m0e764f12a8" y="320.4"/>
      </g>
     </g>
    </g>
    <g id="xtick_13">
     <g id="line2d_13">
      <g>
       <use style="stroke:#000000;stroke-width:0.6;" x="80.754545" xlink:href="#m0e764f12a8" y="320.4"/>
      </g>
     </g>
    </g>
    <g id="xtick_14">
     <g id="line2d_14">
      <g>
       <use style="stroke:#000000;stroke-width:0.6;" x="95.833748" xlink:href="#m0e764f12a8" y="320.4"/>
      </g>
     </g>
    </g>
    <g id="xtick_15">
     <g id="line2d_15">
      <g>
       <use style="stroke:#000000;stroke-width:0.6;" x="109.453674" xlink:href="#m0e764f12a8" y="320.4"/>
      </g>
     </g>
    </g>
    <g id="xtick_16">
     <g id="line2d_16">
      <g>
       <use style="stroke:#000000;stroke-width:0.6;" x="124.532877" xlink:href="#m0e764f12a8" y="320.4"/>
      </g>
     </g>
    </g>
    <g id="xtick_17">
     <g id="line2d_17">
      <g>
       <use style="stroke:#000000;stroke-width:0.6;" x="139.125654" xlink:href="#m0e764f12a8" y="320.4"/>
      </g>
     </g>
    </g>
    <g id="xtick_18">
     <g id="line2d_18">
      <g>
       <use style="stroke:#000000;stroke-width:0.6;" x="154.204857" xlink:href="#m0e764f12a8" y="320.4"/>
      </g>
     </g>
    </g>
    <g id="xtick_19">
     <g id="line2d_19">
      <g>
       <use style="stroke:#000000;stroke-width:0.6;" x="168.797634" xlink:href="#m0e764f12a8" y="320.4"/>
      </g>
     </g>
    </g>
    <g id="xtick_20">
     <g id="line2d_20">
      <g>
       <use style="stroke:#000000;stroke-width:0.6;" x="183.876837" xlink:href="#m0e764f12a8" y="320.4"/>
      </g>
     </g>
    </g>
    <g id="xtick_21">
     <g id="line2d_21">
      <g>
       <use style="stroke:#000000;stroke-width:0.6;" x="198.95604" xlink:href="#m0e764f12a8" y="320.4"/>
      </g>
     </g>
    </g>
    <g id="xtick_22">
     <g id="line2d_22">
      <g>
       <use style="stroke:#000000;stroke-width:0.6;" x="213.548817" xlink:href="#m0e764f12a8" y="320.4"/>
      </g>
     </g>
    </g>
    <g id="xtick_23">
     <g id="line2d_23">
      <g>
       <use style="stroke:#000000;stroke-width:0.6;" x="228.62802" xlink:href="#m0e764f12a8" y="320.4"/>
      </g>
     </g>
    </g>
    <g id="xtick_24">
     <g id="line2d_24">
      <g>
       <use style="stroke:#000000;stroke-width:0.6;" x="243.220797" xlink:href="#m0e764f12a8" y="320.4"/>
      </g>
     </g>
    </g>
    <g id="xtick_25">
     <g id="line2d_25">
      <g>
       <use style="stroke:#000000;stroke-width:0.6;" x="258.3" xlink:href="#m0e764f12a8" y="320.4"/>
      </g>
     </g>
    </g>
    <g id="xtick_26">
     <g id="line2d_26">
      <g>
       <use style="stroke:#000000;stroke-width:0.6;" x="273.379203" xlink:href="#m0e764f12a8" y="320.4"/>
      </g>
     </g>
    </g>
    <g id="xtick_27">
     <g id="line2d_27">
      <g>
       <use style="stroke:#000000;stroke-width:0.6;" x="287.485554" xlink:href="#m0e764f12a8" y="320.4"/>
      </g>
     </g>
    </g>
    <g id="xtick_28">
     <g id="line2d_28">
      <g>
       <use style="stroke:#000000;stroke-width:0.6;" x="302.564757" xlink:href="#m0e764f12a8" y="320.4"/>
      </g>
     </g>
    </g>
    <g id="xtick_29">
     <g id="line2d_29">
      <g>
       <use style="stroke:#000000;stroke-width:0.6;" x="317.157534" xlink:href="#m0e764f12a8" y="320.4"/>
      </g>
     </g>
    </g>
    <g id="xtick_30">
     <g id="line2d_30">
      <g>
       <use style="stroke:#000000;stroke-width:0.6;" x="332.236737" xlink:href="#m0e764f12a8" y="320.4"/>
      </g>
     </g>
    </g>
    <g id="xtick_31">
     <g id="line2d_31">
      <g>
       <use style="stroke:#000000;stroke-width:0.6;" x="346.829514" xlink:href="#m0e764f12a8" y="320.4"/>
      </g>
     </g>
    </g>
    <g id="xtick_32">
     <g id="line2d_32">
      <g>
       <use style="stroke:#000000;stroke-width:0.6;" x="361.908717" xlink:href="#m0e764f12a8" y="320.4"/>
      </g>
     </g>
    </g>
    <g id="xtick_33">
     <g id="line2d_33">
      <g>
       <use style="stroke:#000000;stroke-width:0.6;" x="376.98792" xlink:href="#m0e764f12a8" y="320.4"/>
      </g>
     </g>
    </g>
    <g id="xtick_34">
     <g id="line2d_34">
      <g>
       <use style="stroke:#000000;stroke-width:0.6;" x="391.580697" xlink:href="#m0e764f12a8" y="320.4"/>
      </g>
     </g>
    </g>
    <g id="xtick_35">
     <g id="line2d_35">
      <g>
       <use style="stroke:#000000;stroke-width:0.6;" x="406.6599" xlink:href="#m0e764f12a8" y="320.4"/>
      </g>
     </g>
    </g>
    <g id="xtick_36">
     <g id="line2d_36">
      <g>
       <use style="stroke:#000000;stroke-width:0.6;" x="421.252677" xlink:href="#m0e764f12a8" y="320.4"/>
      </g>
     </g>
    </g>
    <g id="xtick_37">
     <g id="line2d_37">
      <g>
       <use style="stroke:#000000;stroke-width:0.6;" x="436.33188" xlink:href="#m0e764f12a8" y="320.4"/>
      </g>
     </g>
    </g>
    <g id="xtick_38">
     <g id="line2d_38">
      <g>
       <use style="stroke:#000000;stroke-width:0.6;" x="451.411083" xlink:href="#m0e764f12a8" y="320.4"/>
      </g>
     </g>
    </g>
    <g id="text_10">
     <!-- Date -->
     <defs>
      <path d="M 19.671875 64.796875 
L 19.671875 8.109375 
L 31.59375 8.109375 
Q 46.6875 8.109375 53.6875 14.9375 
Q 60.6875 21.78125 60.6875 36.53125 
Q 60.6875 51.171875 53.6875 57.984375 
Q 46.6875 64.796875 31.59375 64.796875 
z
M 9.8125 72.90625 
L 30.078125 72.90625 
Q 51.265625 72.90625 61.171875 64.09375 
Q 71.09375 55.28125 71.09375 36.53125 
Q 71.09375 17.671875 61.125 8.828125 
Q 51.171875 0 30.078125 0 
L 9.8125 0 
z
" id="DejaVuSans-44"/>
      <path d="M 56.203125 29.59375 
L 56.203125 25.203125 
L 14.890625 25.203125 
Q 15.484375 15.921875 20.484375 11.0625 
Q 25.484375 6.203125 34.421875 6.203125 
Q 39.59375 6.203125 44.453125 7.46875 
Q 49.3125 8.734375 54.109375 11.28125 
L 54.109375 2.78125 
Q 49.265625 0.734375 44.1875 -0.34375 
Q 39.109375 -1.421875 33.890625 -1.421875 
Q 20.796875 -1.421875 13.15625 6.1875 
Q 5.515625 13.8125 5.515625 26.8125 
Q 5.515625 40.234375 12.765625 48.109375 
Q 20.015625 56 32.328125 56 
Q 43.359375 56 49.78125 48.890625 
Q 56.203125 41.796875 56.203125 29.59375 
z
M 47.21875 32.234375 
Q 47.125 39.59375 43.09375 43.984375 
Q 39.0625 48.390625 32.421875 48.390625 
Q 24.90625 48.390625 20.390625 44.140625 
Q 15.875 39.890625 15.1875 32.171875 
z
" id="DejaVuSans-65"/>
     </defs>
     <g transform="translate(246.349219 359.874375)scale(0.1 -0.1)">
      <use xlink:href="#DejaVuSans-44"/>
      <use x="77.001953" xlink:href="#DejaVuSans-61"/>
      <use x="138.28125" xlink:href="#DejaVuSans-74"/>
      <use x="177.490234" xlink:href="#DejaVuSans-65"/>
     </g>
    </g>
   </g>
   <g id="matplotlib.axis_2">
    <g id="ytick_1">
     <g id="line2d_39">
      <defs>
       <path d="M 0 0 
L -3.5 0 
" id="m7a2968bdfb" style="stroke:#000000;stroke-width:0.8;"/>
      </defs>
      <g>
       <use style="stroke:#000000;stroke-width:0.8;" x="63" xlink:href="#m7a2968bdfb" y="307.997183"/>
      </g>
     </g>
     <g id="text_11">
      <!-- −1000 -->
      <defs>
       <path d="M 10.59375 35.5 
L 73.1875 35.5 
L 73.1875 27.203125 
L 10.59375 27.203125 
z
" id="DejaVuSans-2212"/>
       <path d="M 31.78125 66.40625 
Q 24.171875 66.40625 20.328125 58.90625 
Q 16.5 51.421875 16.5 36.375 
Q 16.5 21.390625 20.328125 13.890625 
Q 24.171875 6.390625 31.78125 6.390625 
Q 39.453125 6.390625 43.28125 13.890625 
Q 47.125 21.390625 47.125 36.375 
Q 47.125 51.421875 43.28125 58.90625 
Q 39.453125 66.40625 31.78125 66.40625 
z
M 31.78125 74.21875 
Q 44.046875 74.21875 50.515625 64.515625 
Q 56.984375 54.828125 56.984375 36.375 
Q 56.984375 17.96875 50.515625 8.265625 
Q 44.046875 -1.421875 31.78125 -1.421875 
Q 19.53125 -1.421875 13.0625 8.265625 
Q 6.59375 17.96875 6.59375 36.375 
Q 6.59375 54.828125 13.0625 64.515625 
Q 19.53125 74.21875 31.78125 74.21875 
z
" id="DejaVuSans-30"/>
      </defs>
      <g transform="translate(22.170313 311.796402)scale(0.1 -0.1)">
       <use xlink:href="#DejaVuSans-2212"/>
       <use x="83.789062" xlink:href="#DejaVuSans-31"/>
       <use x="147.412109" xlink:href="#DejaVuSans-30"/>
       <use x="211.035156" xlink:href="#DejaVuSans-30"/>
       <use x="274.658203" xlink:href="#DejaVuSans-30"/>
      </g>
     </g>
    </g>
    <g id="ytick_2">
     <g id="line2d_40">
      <g>
       <use style="stroke:#000000;stroke-width:0.8;" x="63" xlink:href="#m7a2968bdfb" y="268.560563"/>
      </g>
     </g>
     <g id="text_12">
      <!-- −800 -->
      <defs>
       <path d="M 31.78125 34.625 
Q 24.75 34.625 20.71875 30.859375 
Q 16.703125 27.09375 16.703125 20.515625 
Q 16.703125 13.921875 20.71875 10.15625 
Q 24.75 6.390625 31.78125 6.390625 
Q 38.8125 6.390625 42.859375 10.171875 
Q 46.921875 13.96875 46.921875 20.515625 
Q 46.921875 27.09375 42.890625 30.859375 
Q 38.875 34.625 31.78125 34.625 
z
M 21.921875 38.8125 
Q 15.578125 40.375 12.03125 44.71875 
Q 8.5 49.078125 8.5 55.328125 
Q 8.5 64.0625 14.71875 69.140625 
Q 20.953125 74.21875 31.78125 74.21875 
Q 42.671875 74.21875 48.875 69.140625 
Q 55.078125 64.0625 55.078125 55.328125 
Q 55.078125 49.078125 51.53125 44.71875 
Q 48 40.375 41.703125 38.8125 
Q 48.828125 37.15625 52.796875 32.3125 
Q 56.78125 27.484375 56.78125 20.515625 
Q 56.78125 9.90625 50.3125 4.234375 
Q 43.84375 -1.421875 31.78125 -1.421875 
Q 19.734375 -1.421875 13.25 4.234375 
Q 6.78125 9.90625 6.78125 20.515625 
Q 6.78125 27.484375 10.78125 32.3125 
Q 14.796875 37.15625 21.921875 38.8125 
z
M 18.3125 54.390625 
Q 18.3125 48.734375 21.84375 45.5625 
Q 25.390625 42.390625 31.78125 42.390625 
Q 38.140625 42.390625 41.71875 45.5625 
Q 45.3125 48.734375 45.3125 54.390625 
Q 45.3125 60.0625 41.71875 63.234375 
Q 38.140625 66.40625 31.78125 66.40625 
Q 25.390625 66.40625 21.84375 63.234375 
Q 18.3125 60.0625 18.3125 54.390625 
z
" id="DejaVuSans-38"/>
      </defs>
      <g transform="translate(28.532812 272.359782)scale(0.1 -0.1)">
       <use xlink:href="#DejaVuSans-2212"/>
       <use x="83.789062" xlink:href="#DejaVuSans-38"/>
       <use x="147.412109" xlink:href="#DejaVuSans-30"/>
       <use x="211.035156" xlink:href="#DejaVuSans-30"/>
      </g>
     </g>
    </g>
    <g id="ytick_3">
     <g id="line2d_41">
      <g>
       <use style="stroke:#000000;stroke-width:0.8;" x="63" xlink:href="#m7a2968bdfb" y="229.123944"/>
      </g>
     </g>
     <g id="text_13">
      <!-- −600 -->
      <g transform="translate(28.532812 232.923162)scale(0.1 -0.1)">
       <use xlink:href="#DejaVuSans-2212"/>
       <use x="83.789062" xlink:href="#DejaVuSans-36"/>
       <use x="147.412109" xlink:href="#DejaVuSans-30"/>
       <use x="211.035156" xlink:href="#DejaVuSans-30"/>
      </g>
     </g>
    </g>
    <g id="ytick_4">
     <g id="line2d_42">
      <g>
       <use style="stroke:#000000;stroke-width:0.8;" x="63" xlink:href="#m7a2968bdfb" y="189.687324"/>
      </g>
     </g>
     <g id="text_14">
      <!-- −400 -->
      <defs>
       <path d="M 37.796875 64.3125 
L 12.890625 25.390625 
L 37.796875 25.390625 
z
M 35.203125 72.90625 
L 47.609375 72.90625 
L 47.609375 25.390625 
L 58.015625 25.390625 
L 58.015625 17.1875 
L 47.609375 17.1875 
L 47.609375 0 
L 37.796875 0 
L 37.796875 17.1875 
L 4.890625 17.1875 
L 4.890625 26.703125 
z
" id="DejaVuSans-34"/>
      </defs>
      <g transform="translate(28.532812 193.486543)scale(0.1 -0.1)">
       <use xlink:href="#DejaVuSans-2212"/>
       <use x="83.789062" xlink:href="#DejaVuSans-34"/>
       <use x="147.412109" xlink:href="#DejaVuSans-30"/>
       <use x="211.035156" xlink:href="#DejaVuSans-30"/>
      </g>
     </g>
    </g>
    <g id="ytick_5">
     <g id="line2d_43">
      <g>
       <use style="stroke:#000000;stroke-width:0.8;" x="63" xlink:href="#m7a2968bdfb" y="150.250704"/>
      </g>
     </g>
     <g id="text_15">
      <!-- −200 -->
      <defs>
       <path d="M 19.1875 8.296875 
L 53.609375 8.296875 
L 53.609375 0 
L 7.328125 0 
L 7.328125 8.296875 
Q 12.9375 14.109375 22.625 23.890625 
Q 32.328125 33.6875 34.8125 36.53125 
Q 39.546875 41.84375 41.421875 45.53125 
Q 43.3125 49.21875 43.3125 52.78125 
Q 43.3125 58.59375 39.234375 62.25 
Q 35.15625 65.921875 28.609375 65.921875 
Q 23.96875 65.921875 18.8125 64.3125 
Q 13.671875 62.703125 7.8125 59.421875 
L 7.8125 69.390625 
Q 13.765625 71.78125 18.9375 73 
Q 24.125 74.21875 28.421875 74.21875 
Q 39.75 74.21875 46.484375 68.546875 
Q 53.21875 62.890625 53.21875 53.421875 
Q 53.21875 48.921875 51.53125 44.890625 
Q 49.859375 40.875 45.40625 35.40625 
Q 44.1875 33.984375 37.640625 27.21875 
Q 31.109375 20.453125 19.1875 8.296875 
z
" id="DejaVuSans-32"/>
      </defs>
      <g transform="translate(28.532812 154.049923)scale(0.1 -0.1)">
       <use xlink:href="#DejaVuSans-2212"/>
       <use x="83.789062" xlink:href="#DejaVuSans-32"/>
       <use x="147.412109" xlink:href="#DejaVuSans-30"/>
       <use x="211.035156" xlink:href="#DejaVuSans-30"/>
      </g>
     </g>
    </g>
    <g id="ytick_6">
     <g id="line2d_44">
      <g>
       <use style="stroke:#000000;stroke-width:0.8;" x="63" xlink:href="#m7a2968bdfb" y="110.814085"/>
      </g>
     </g>
     <g id="text_16">
      <!-- 0 -->
      <g transform="translate(49.6375 114.613303)scale(0.1 -0.1)">
       <use xlink:href="#DejaVuSans-30"/>
      </g>
     </g>
    </g>
    <g id="ytick_7">
     <g id="line2d_45">
      <g>
       <use style="stroke:#000000;stroke-width:0.8;" x="63" xlink:href="#m7a2968bdfb" y="71.377465"/>
      </g>
     </g>
     <g id="text_17">
      <!-- 200 -->
      <g transform="translate(36.9125 75.176684)scale(0.1 -0.1)">
       <use xlink:href="#DejaVuSans-32"/>
       <use x="63.623047" xlink:href="#DejaVuSans-30"/>
       <use x="127.246094" xlink:href="#DejaVuSans-30"/>
      </g>
     </g>
    </g>
    <g id="text_18">
     <!-- Daily precipitation - mm -->
     <defs>
      <path d="M 9.421875 54.6875 
L 18.40625 54.6875 
L 18.40625 0 
L 9.421875 0 
z
M 9.421875 75.984375 
L 18.40625 75.984375 
L 18.40625 64.59375 
L 9.421875 64.59375 
z
" id="DejaVuSans-69"/>
      <path d="M 32.171875 -5.078125 
Q 28.375 -14.84375 24.75 -17.8125 
Q 21.140625 -20.796875 15.09375 -20.796875 
L 7.90625 -20.796875 
L 7.90625 -13.28125 
L 13.1875 -13.28125 
Q 16.890625 -13.28125 18.9375 -11.515625 
Q 21 -9.765625 23.484375 -3.21875 
L 25.09375 0.875 
L 2.984375 54.6875 
L 12.5 54.6875 
L 29.59375 11.921875 
L 46.6875 54.6875 
L 56.203125 54.6875 
z
" id="DejaVuSans-79"/>
      <path id="DejaVuSans-20"/>
      <path d="M 30.609375 48.390625 
Q 23.390625 48.390625 19.1875 42.75 
Q 14.984375 37.109375 14.984375 27.296875 
Q 14.984375 17.484375 19.15625 11.84375 
Q 23.34375 6.203125 30.609375 6.203125 
Q 37.796875 6.203125 41.984375 11.859375 
Q 46.1875 17.53125 46.1875 27.296875 
Q 46.1875 37.015625 41.984375 42.703125 
Q 37.796875 48.390625 30.609375 48.390625 
z
M 30.609375 56 
Q 42.328125 56 49.015625 48.375 
Q 55.71875 40.765625 55.71875 27.296875 
Q 55.71875 13.875 49.015625 6.21875 
Q 42.328125 -1.421875 30.609375 -1.421875 
Q 18.84375 -1.421875 12.171875 6.21875 
Q 5.515625 13.875 5.515625 27.296875 
Q 5.515625 40.765625 12.171875 48.375 
Q 18.84375 56 30.609375 56 
z
" id="DejaVuSans-6f"/>
      <path d="M 4.890625 31.390625 
L 31.203125 31.390625 
L 31.203125 23.390625 
L 4.890625 23.390625 
z
" id="DejaVuSans-2d"/>
      <path d="M 52 44.1875 
Q 55.375 50.25 60.0625 53.125 
Q 64.75 56 71.09375 56 
Q 79.640625 56 84.28125 50.015625 
Q 88.921875 44.046875 88.921875 33.015625 
L 88.921875 0 
L 79.890625 0 
L 79.890625 32.71875 
Q 79.890625 40.578125 77.09375 44.375 
Q 74.3125 48.1875 68.609375 48.1875 
Q 61.625 48.1875 57.5625 43.546875 
Q 53.515625 38.921875 53.515625 30.90625 
L 53.515625 0 
L 44.484375 0 
L 44.484375 32.71875 
Q 44.484375 40.625 41.703125 44.40625 
Q 38.921875 48.1875 33.109375 48.1875 
Q 26.21875 48.1875 22.15625 43.53125 
Q 18.109375 38.875 18.109375 30.90625 
L 18.109375 0 
L 9.078125 0 
L 9.078125 54.6875 
L 18.109375 54.6875 
L 18.109375 46.1875 
Q 21.1875 51.21875 25.484375 53.609375 
Q 29.78125 56 35.6875 56 
Q 41.65625 56 45.828125 52.96875 
Q 50 49.953125 52 44.1875 
z
" id="DejaVuSans-6d"/>
     </defs>
     <g transform="translate(16.090625 242.371094)rotate(-90)scale(0.1 -0.1)">
      <use xlink:href="#DejaVuSans-44"/>
      <use x="77.001953" xlink:href="#DejaVuSans-61"/>
      <use x="138.28125" xlink:href="#DejaVuSans-69"/>
      <use x="166.064453" xlink:href="#DejaVuSans-6c"/>
      <use x="193.847656" xlink:href="#DejaVuSans-79"/>
      <use x="253.027344" xlink:href="#DejaVuSans-20"/>
      <use x="284.814453" xlink:href="#DejaVuSans-70"/>
      <use x="348.291016" xlink:href="#DejaVuSans-72"/>
      <use x="389.373047" xlink:href="#DejaVuSans-65"/>
      <use x="450.896484" xlink:href="#DejaVuSans-63"/>
      <use x="505.876953" xlink:href="#DejaVuSans-69"/>
      <use x="533.660156" xlink:href="#DejaVuSans-70"/>
      <use x="597.136719" xlink:href="#DejaVuSans-69"/>
      <use x="624.919922" xlink:href="#DejaVuSans-74"/>
      <use x="664.128906" xlink:href="#DejaVuSans-61"/>
      <use x="725.408203" xlink:href="#DejaVuSans-74"/>
      <use x="764.617188" xlink:href="#DejaVuSans-69"/>
      <use x="792.400391" xlink:href="#DejaVuSans-6f"/>
      <use x="853.582031" xlink:href="#DejaVuSans-6e"/>
      <use x="916.960938" xlink:href="#DejaVuSans-20"/>
      <use x="948.748047" xlink:href="#DejaVuSans-2d"/>
      <use x="984.832031" xlink:href="#DejaVuSans-20"/>
      <use x="1016.619141" xlink:href="#DejaVuSans-6d"/>
      <use x="1114.03125" xlink:href="#DejaVuSans-6d"/>
     </g>
    </g>
   </g>
   <g id="line2d_46">
    <path clip-path="url(#pcfd7a74287)" d="M 80.754545 110.814085 
L 82.213823 110.705634 
L 82.700249 110.814085 
L 83.186675 110.128873 
L 83.673101 108.053521 
L 84.159527 110.814085 
L 87.564508 110.814085 
L 88.050934 110.611972 
L 88.53736 109.709859 
L 89.023786 110.695775 
L 89.510212 110.473944 
L 89.996638 109.340141 
L 90.483064 110.597183 
L 90.969489 109.197183 
L 91.455915 109.310563 
L 91.942341 110.814085 
L 93.401619 110.814085 
L 93.888045 110.666197 
L 94.374471 110.814085 
L 94.860897 110.784507 
L 95.347323 108.442958 
L 95.833748 109.251408 
L 96.320174 109.773944 
L 96.8066 110.814085 
L 97.293026 110.814085 
L 97.779452 110.271831 
L 98.265878 110.814085 
L 101.670859 110.799296 
L 102.157285 111.499296 
L 102.643711 110.814085 
L 105.562267 110.769718 
L 106.048692 110.63169 
L 106.535118 106.224648 
L 107.021544 110.814085 
L 110.912951 110.814085 
L 111.399377 108.171831 
L 111.885803 109.966197 
L 112.372229 110.661268 
L 112.858655 110.814085 
L 115.77721 110.814085 
L 116.263636 110.257042 
L 116.750062 110.720423 
L 117.722914 110.814085 
L 118.20934 103.616901 
L 118.695766 110.784507 
L 120.641469 110.814085 
L 121.127895 110.010563 
L 121.614321 110.28662 
L 122.100747 110.814085 
L 125.992154 110.814085 
L 126.47858 110.656338 
L 126.965006 110.814085 
L 128.424284 110.710563 
L 128.91071 108.76338 
L 129.397136 108.935915 
L 129.883562 110.439437 
L 130.856413 110.814085 
L 134.261395 110.769718 
L 134.747821 108.507042 
L 135.234247 109.11338 
L 135.720672 110.814085 
L 139.125654 110.814085 
L 139.61208 109.552113 
L 140.098506 110.365493 
L 140.584932 110.74507 
L 141.557783 110.730282 
L 142.044209 92.426761 
L 142.530635 110.789437 
L 143.017061 110.720423 
L 143.989913 110.814085 
L 145.935616 110.814085 
L 146.422042 109.58662 
L 146.908468 110.809155 
L 147.88132 110.715493 
L 148.367746 109.946479 
L 148.854172 109.902113 
L 149.340598 110.814085 
L 149.827024 110.814085 
L 150.31345 110.350704 
L 150.799875 110.227465 
L 151.286301 108.403521 
L 151.772727 109.808451 
L 152.259153 108.369014 
L 152.745579 107.530986 
L 153.232005 109.81831 
L 153.718431 110.858451 
L 154.204857 110.814085 
L 154.691283 110.380282 
L 155.177709 110.774648 
L 156.15056 110.814085 
L 156.636986 110.695775 
L 158.58269 110.814085 
L 159.069116 110.597183 
L 159.555542 110.814085 
L 160.041968 109.23169 
L 160.528394 110.020423 
L 161.014819 109.976056 
L 161.501245 110.814085 
L 161.987671 110.814085 
L 162.474097 108.354225 
L 162.960523 110.814085 
L 163.446949 110.158451 
L 163.933375 110.715493 
L 164.906227 110.814085 
L 167.338356 110.814085 
L 168.311208 109.458451 
L 168.797634 109.58662 
L 169.28406 109.596479 
L 169.770486 109.946479 
L 170.743337 109.675352 
L 171.229763 110.814085 
L 172.202615 103.542958 
L 172.689041 110.814085 
L 173.175467 110.355634 
L 173.661893 104.91831 
L 174.148319 110.814085 
L 175.121171 110.814085 
L 175.607597 106.071831 
L 176.094022 110.814085 
L 176.580448 110.611972 
L 177.066874 109.842958 
L 177.5533 110.562676 
L 178.039726 110.557746 
L 178.526152 110.814085 
L 179.98543 110.814085 
L 180.471856 108.88169 
L 180.958281 109.635915 
L 181.444707 110.799296 
L 181.931133 110.690845 
L 182.417559 108.142254 
L 182.903985 109.488028 
L 183.390411 109.665493 
L 183.876837 110.646479 
L 184.363263 108.472535 
L 184.849689 107.900704 
L 185.336115 110.715493 
L 185.82254 110.621831 
L 186.795392 110.814085 
L 187.281818 110.656338 
L 187.768244 110.809155 
L 188.25467 110.814085 
L 188.741096 106.140845 
L 189.227522 109.512676 
L 189.713948 110.469014 
L 190.200374 110.429577 
L 191.173225 110.789437 
L 191.659651 110.114085 
L 192.146077 110.814085 
L 192.632503 110.814085 
L 193.118929 108.935915 
L 193.605355 105.38662 
L 194.091781 109.926761 
L 194.578207 110.814085 
L 197.010336 110.814085 
L 197.496762 110.626761 
L 198.95604 110.814085 
L 200.415318 110.814085 
L 200.901743 108.038732 
L 201.388169 110.75493 
L 201.874595 110.414789 
L 202.361021 110.75 
L 203.333873 110.814085 
L 203.820299 109.547183 
L 204.306725 110.814085 
L 204.793151 110.814085 
L 205.279577 110.434507 
L 205.766002 110.809155 
L 206.252428 108.452817 
L 206.738854 109.852817 
L 207.22528 108.3 
L 207.711706 55.8 
L 208.198132 110.789437 
L 208.684558 110.597183 
L 209.170984 110.814085 
L 211.116687 110.759859 
L 211.603113 105.332394 
L 212.089539 110.730282 
L 213.062391 110.814085 
L 213.548817 110.28662 
L 214.035243 110.173239 
L 214.521669 110.814085 
L 215.008095 110.725352 
L 215.980946 110.814085 
L 218.899502 110.814085 
L 219.385928 109.35 
L 219.872354 110.429577 
L 220.35878 110.809155 
L 221.331631 110.814085 
L 221.818057 109.073944 
L 222.304483 110.814085 
L 233.005853 110.814085 
L 233.978705 107.71338 
L 234.465131 110.814085 
L 236.410834 110.814085 
L 236.89726 108.965493 
L 237.383686 107.669014 
L 237.870112 110.291549 
L 238.356538 110.814085 
L 240.788667 110.814085 
L 241.275093 110.128873 
L 241.761519 110.740141 
L 242.247945 110.099296 
L 242.734371 110.814085 
L 244.193649 110.814085 
L 247.59863 110.814085 
L 248.085056 109.808451 
L 248.571482 109.81338 
L 249.057908 110.572535 
L 249.544334 110.814085 
L 250.03076 110.814085 
L 250.517186 109.340141 
L 251.003611 109.857746 
L 251.490037 110.814085 
L 253.922167 110.789437 
L 254.408593 110.350704 
L 254.895019 106.919718 
L 255.381445 110.814085 
L 255.86787 110.311268 
L 256.354296 108.76831 
L 256.840722 110.562676 
L 257.327148 110.814085 
L 257.813574 110.814085 
L 258.3 107.649296 
L 259.272852 110.814085 
L 259.759278 110.794366 
L 260.245704 110.212676 
L 261.218555 110.814085 
L 262.191407 110.814085 
L 262.677833 110.454225 
L 263.164259 110.424648 
L 263.650685 103.365493 
L 264.137111 109.11338 
L 264.623537 110.814085 
L 265.109963 307.8 
L 265.596389 110.814085 
L 267.055666 110.769718 
L 267.542092 109.330282 
L 268.028518 109.58169 
L 268.514944 110.51831 
L 269.00137 110.814085 
L 270.460648 110.814085 
L 270.947073 110.16831 
L 271.433499 110.355634 
L 271.919925 109.685211 
L 272.406351 103.690845 
L 272.892777 103.109155 
L 273.379203 110.814085 
L 275.324907 110.814085 
L 275.811333 108.132394 
L 276.297758 110.503521 
L 276.784184 110.814085 
L 278.243462 110.814085 
L 278.729888 110.257042 
L 279.216314 110.769718 
L 280.675592 110.814085 
L 283.594147 110.814085 
L 284.080573 110.05 
L 284.566999 110.814085 
L 285.053425 110.814085 
L 285.539851 110.592254 
L 286.026276 110.814085 
L 286.999128 110.814085 
L 287.485554 110.242254 
L 287.97198 109.892254 
L 288.458406 110.814085 
L 289.431258 110.814085 
L 289.917684 109.566901 
L 290.40411 110.804225 
L 292.349813 110.814085 
L 293.322665 110.814085 
L 294.295517 110.099296 
L 294.781943 110.814085 
L 297.214072 110.814085 
L 297.700498 110.276761 
L 298.186924 110.646479 
L 298.67335 110.814085 
L 299.159776 110.646479 
L 299.646202 109.640845 
L 300.132628 108.975352 
L 300.619054 110.222535 
L 301.105479 110.784507 
L 302.078331 110.814085 
L 302.564757 109.990845 
L 303.051183 110.814085 
L 305.969738 110.814085 
L 306.456164 110.646479 
L 306.94259 110.814085 
L 307.915442 110.784507 
L 308.401868 110.409859 
L 308.888294 109.404225 
L 309.37472 110.814085 
L 309.861146 109.798592 
L 310.347572 110.814085 
L 310.833998 110.804225 
L 311.806849 110.51831 
L 312.779701 110.533099 
L 313.266127 110.814085 
L 313.752553 110.202817 
L 314.238979 110.562676 
L 314.725405 106.766901 
L 315.211831 110.429577 
L 315.698257 110.814085 
L 316.671108 110.814085 
L 317.157534 110.340845 
L 317.64396 110.311268 
L 318.130386 107.506338 
L 318.616812 110.814085 
L 319.589664 110.493662 
L 320.07609 108.975352 
L 320.562516 110.291549 
L 321.048941 110.814085 
L 322.021793 110.814085 
L 322.508219 110.148592 
L 322.994645 110.183099 
L 323.967497 103.523239 
L 324.453923 110.715493 
L 324.940349 110.676056 
L 325.426775 110.814085 
L 325.9132 110.814085 
L 326.399626 110.449296 
L 326.886052 110.784507 
L 327.372478 109.670423 
L 327.858904 110.799296 
L 329.318182 110.814085 
L 329.804608 106.20493 
L 330.291034 110.365493 
L 330.77746 109.251408 
L 331.263885 110.459155 
L 331.750311 110.814085 
L 332.236737 110.814085 
L 332.723163 110.252113 
L 333.209589 110.814085 
L 334.182441 110.814085 
L 334.668867 106.722535 
L 335.155293 105.426056 
L 335.641719 110.040141 
L 336.128144 109.492958 
L 336.61457 109.81338 
L 337.100996 110.814085 
L 338.073848 110.814085 
L 338.560274 109.088732 
L 339.0467 108.29507 
L 339.533126 110.192958 
L 340.019552 110.700704 
L 340.505978 109.364789 
L 340.992403 109.823239 
L 341.478829 110.015493 
L 341.965255 108.433099 
L 342.451681 110.350704 
L 343.424533 110.804225 
L 343.910959 110.814085 
L 344.883811 107.688732 
L 345.370237 110.814085 
L 345.856663 110.814085 
L 346.343088 110.28662 
L 346.829514 110.685915 
L 347.31594 110.567606 
L 347.802366 110.814085 
L 351.693773 110.814085 
L 352.180199 109.246479 
L 352.666625 108.76831 
L 353.153051 106.214789 
L 353.639477 110.109155 
L 354.125903 110.63662 
L 354.612329 110.656338 
L 355.098755 110.814085 
L 356.071606 110.814085 
L 356.558032 109.399296 
L 357.044458 110.814085 
L 360.935866 110.814085 
L 361.422291 110.439437 
L 361.908717 109.665493 
L 362.395143 110.814085 
L 362.881569 110.814085 
L 363.367995 108.502113 
L 363.854421 110.814085 
L 364.827273 110.814085 
L 365.313699 108.832394 
L 365.800125 109.167606 
L 366.28655 108.88169 
L 366.772976 106.367606 
L 367.259402 110.735211 
L 368.71868 110.764789 
L 370.177958 110.814085 
L 374.069365 110.814085 
L 374.555791 110.414789 
L 375.042217 110.814085 
L 378.447198 110.814085 
L 378.933624 109.788732 
L 379.42005 107.412676 
L 379.906476 110.695775 
L 380.392902 110.094366 
L 380.879328 110.814085 
L 389.148568 110.814085 
L 389.634994 110.069718 
L 390.12142 106.387324 
L 390.607846 110.276761 
L 391.094271 110.814085 
L 394.499253 110.814085 
L 395.472105 110.424648 
L 395.958531 110.814085 
L 396.444956 110.814085 
L 397.417808 110.035211 
L 397.904234 110.814085 
L 398.877086 110.582394 
L 399.363512 110.814085 
L 399.849938 110.390141 
L 400.336364 108.137324 
L 400.82279 107.585211 
L 401.309215 110.469014 
L 401.795641 110.814085 
L 402.282067 110.814085 
L 402.768493 110.63169 
L 404.227771 110.814085 
L 407.632752 110.735211 
L 408.119178 110.587324 
L 408.605604 110.814085 
L 410.064882 110.814085 
L 410.551308 107.062676 
L 411.037733 110.75493 
L 412.010585 110.814085 
L 412.497011 110.685915 
L 412.983437 110.814085 
L 416.388418 110.814085 
L 416.874844 109.552113 
L 417.36127 105.73169 
L 417.847696 110.814085 
L 419.306974 110.814085 
L 419.7934 110.261972 
L 420.279826 110.720423 
L 421.252677 110.814085 
L 421.739103 110.814085 
L 422.225529 109.966197 
L 422.711955 108.516901 
L 423.198381 109.473239 
L 423.684807 110.814085 
L 424.171233 110.814085 
L 424.657659 108.403521 
L 425.144085 109.81338 
L 425.630511 110.814085 
L 426.116936 110.478873 
L 426.603362 110.28662 
L 427.089788 110.661268 
L 427.576214 110.814085 
L 429.521918 110.814085 
L 430.008344 109.645775 
L 430.49477 110.064789 
L 430.981196 110.685915 
L 431.954047 110.814085 
L 432.440473 110.557746 
L 432.926899 110.814085 
L 433.413325 108.723944 
L 433.899751 108.477465 
L 434.386177 307.8 
L 434.872603 110.814085 
L 435.845455 110.814085 
L 435.845455 110.814085 
" style="fill:none;opacity:0.65;stroke:#ff0000;stroke-linecap:square;stroke-width:1.5;"/>
   </g>
   <g id="line2d_47">
    <path clip-path="url(#pcfd7a74287)" d="M 80.754545 110.814085 
L 82.213823 110.705634 
L 82.700249 110.814085 
L 83.186675 110.128873 
L 83.673101 108.053521 
L 84.159527 110.814085 
L 87.564508 110.814085 
L 88.050934 110.611972 
L 88.53736 109.709859 
L 89.023786 110.695775 
L 89.510212 110.473944 
L 89.996638 109.340141 
L 90.483064 110.597183 
L 90.969489 109.197183 
L 91.455915 109.310563 
L 91.942341 110.814085 
L 93.401619 110.814085 
L 93.888045 110.666197 
L 94.374471 110.814085 
L 94.860897 110.784507 
L 95.347323 108.442958 
L 95.833748 109.251408 
L 96.320174 109.773944 
L 96.8066 110.814085 
L 97.293026 110.814085 
L 97.779452 110.271831 
L 98.265878 110.814085 
L 101.670859 110.799296 
M 102.643711 110.814085 
L 105.562267 110.769718 
L 106.048692 110.63169 
L 106.535118 106.224648 
L 107.021544 110.814085 
L 110.912951 110.814085 
L 111.399377 108.171831 
L 111.885803 109.966197 
L 112.372229 110.661268 
L 112.858655 110.814085 
L 115.77721 110.814085 
L 116.263636 110.257042 
L 116.750062 110.720423 
L 117.722914 110.814085 
M 118.695766 110.784507 
L 120.641469 110.814085 
L 121.127895 110.010563 
L 121.614321 110.28662 
L 122.100747 110.814085 
L 125.992154 110.814085 
L 126.47858 110.656338 
L 126.965006 110.814085 
L 128.424284 110.710563 
L 128.91071 108.76338 
L 129.397136 108.935915 
L 129.883562 110.439437 
L 130.856413 110.814085 
L 134.261395 110.769718 
L 134.747821 108.507042 
L 135.234247 109.11338 
L 135.720672 110.814085 
L 139.125654 110.814085 
L 139.61208 109.552113 
L 140.098506 110.365493 
L 140.584932 110.74507 
L 141.557783 110.730282 
M 142.530635 110.789437 
L 143.017061 110.720423 
L 143.989913 110.814085 
L 145.935616 110.814085 
L 146.422042 109.58662 
L 146.908468 110.809155 
L 147.88132 110.715493 
L 148.367746 109.946479 
L 148.854172 109.902113 
L 149.340598 110.814085 
L 149.827024 110.814085 
L 150.31345 110.350704 
L 150.799875 110.227465 
L 151.286301 108.403521 
L 151.772727 109.808451 
L 152.259153 108.369014 
L 152.745579 107.530986 
L 153.232005 109.81831 
M 154.204857 110.814085 
L 154.691283 110.380282 
L 155.177709 110.774648 
L 156.15056 110.814085 
L 156.636986 110.695775 
L 158.58269 110.814085 
L 159.069116 110.597183 
L 159.555542 110.814085 
L 160.041968 109.23169 
L 160.528394 110.020423 
L 161.014819 109.976056 
L 161.501245 110.814085 
L 161.987671 110.814085 
L 162.474097 108.354225 
L 162.960523 110.814085 
L 163.446949 110.158451 
L 163.933375 110.715493 
L 164.906227 110.814085 
L 167.338356 110.814085 
L 168.311208 109.458451 
L 168.797634 109.58662 
L 169.28406 109.596479 
L 169.770486 109.946479 
L 170.743337 109.675352 
L 171.229763 110.814085 
L 171.716189 107.176056 
M 172.689041 110.814085 
L 173.175467 110.355634 
M 174.148319 110.814085 
L 175.121171 110.814085 
L 175.607597 106.071831 
L 176.094022 110.814085 
L 176.580448 110.611972 
L 177.066874 109.842958 
L 177.5533 110.562676 
L 178.039726 110.557746 
L 178.526152 110.814085 
L 179.98543 110.814085 
L 180.471856 108.88169 
L 180.958281 109.635915 
L 181.444707 110.799296 
L 181.931133 110.690845 
L 182.417559 108.142254 
L 182.903985 109.488028 
L 183.390411 109.665493 
L 183.876837 110.646479 
L 184.363263 108.472535 
L 184.849689 107.900704 
L 185.336115 110.715493 
L 185.82254 110.621831 
L 186.795392 110.814085 
L 187.281818 110.656338 
L 187.768244 110.809155 
L 188.25467 110.814085 
L 188.741096 106.140845 
L 189.227522 109.512676 
L 189.713948 110.469014 
L 190.200374 110.429577 
L 191.173225 110.789437 
L 191.659651 110.114085 
L 192.146077 110.814085 
L 192.632503 110.814085 
L 193.118929 108.935915 
M 194.091781 109.926761 
L 194.578207 110.814085 
L 197.010336 110.814085 
L 197.496762 110.626761 
L 198.95604 110.814085 
L 200.415318 110.814085 
L 200.901743 108.038732 
L 201.388169 110.75493 
L 201.874595 110.414789 
L 202.361021 110.75 
L 203.333873 110.814085 
L 203.820299 109.547183 
L 204.306725 110.814085 
L 204.793151 110.814085 
L 205.279577 110.434507 
L 205.766002 110.809155 
L 206.252428 108.452817 
L 206.738854 109.852817 
L 207.22528 108.3 
M 208.198132 110.789437 
L 208.684558 110.597183 
L 209.170984 110.814085 
L 211.116687 110.759859 
M 212.089539 110.730282 
L 213.062391 110.814085 
L 213.548817 110.28662 
L 214.035243 110.173239 
L 214.521669 110.814085 
L 215.008095 110.725352 
L 215.980946 110.814085 
L 218.899502 110.814085 
L 219.385928 109.35 
L 219.872354 110.429577 
L 220.35878 110.809155 
L 221.331631 110.814085 
L 221.818057 109.073944 
L 222.304483 110.814085 
L 233.005853 110.814085 
L 233.978705 107.71338 
L 234.465131 110.814085 
L 236.410834 110.814085 
L 236.89726 108.965493 
L 237.383686 107.669014 
L 237.870112 110.291549 
L 238.356538 110.814085 
L 240.788667 110.814085 
L 241.275093 110.128873 
L 241.761519 110.740141 
L 242.247945 110.099296 
L 242.734371 110.814085 
L 244.193649 110.814085 
L 247.59863 110.814085 
L 248.085056 109.808451 
L 248.571482 109.81338 
L 249.057908 110.572535 
L 249.544334 110.814085 
L 250.03076 110.814085 
L 250.517186 109.340141 
L 251.003611 109.857746 
L 251.490037 110.814085 
L 253.922167 110.789437 
L 254.408593 110.350704 
L 254.895019 106.919718 
L 255.381445 110.814085 
L 255.86787 110.311268 
L 256.354296 108.76831 
L 256.840722 110.562676 
L 257.327148 110.814085 
L 257.813574 110.814085 
L 258.3 107.649296 
L 259.272852 110.814085 
L 259.759278 110.794366 
L 260.245704 110.212676 
L 261.218555 110.814085 
L 262.191407 110.814085 
L 262.677833 110.454225 
L 263.164259 110.424648 
M 264.137111 109.11338 
L 264.623537 110.814085 
M 265.596389 110.814085 
L 267.055666 110.769718 
L 267.542092 109.330282 
L 268.028518 109.58169 
L 268.514944 110.51831 
L 269.00137 110.814085 
L 270.460648 110.814085 
L 270.947073 110.16831 
L 271.433499 110.355634 
L 271.919925 109.685211 
M 273.379203 110.814085 
L 275.324907 110.814085 
L 275.811333 108.132394 
L 276.297758 110.503521 
L 276.784184 110.814085 
L 278.243462 110.814085 
L 278.729888 110.257042 
L 279.216314 110.769718 
L 280.675592 110.814085 
L 283.594147 110.814085 
L 284.080573 110.05 
L 284.566999 110.814085 
L 285.053425 110.814085 
L 285.539851 110.592254 
L 286.026276 110.814085 
L 286.999128 110.814085 
L 287.485554 110.242254 
L 287.97198 109.892254 
L 288.458406 110.814085 
L 289.431258 110.814085 
L 289.917684 109.566901 
L 290.40411 110.804225 
L 292.349813 110.814085 
L 293.322665 110.814085 
L 294.295517 110.099296 
L 294.781943 110.814085 
L 297.214072 110.814085 
L 297.700498 110.276761 
L 298.186924 110.646479 
L 298.67335 110.814085 
L 299.159776 110.646479 
L 299.646202 109.640845 
L 300.132628 108.975352 
L 300.619054 110.222535 
L 301.105479 110.784507 
L 302.078331 110.814085 
L 302.564757 109.990845 
L 303.051183 110.814085 
L 305.969738 110.814085 
L 306.456164 110.646479 
L 306.94259 110.814085 
L 307.915442 110.784507 
L 308.401868 110.409859 
L 308.888294 109.404225 
L 309.37472 110.814085 
L 309.861146 109.798592 
L 310.347572 110.814085 
L 310.833998 110.804225 
L 311.806849 110.51831 
L 312.779701 110.533099 
L 313.266127 110.814085 
L 313.752553 110.202817 
L 314.238979 110.562676 
L 314.725405 106.766901 
L 315.211831 110.429577 
L 315.698257 110.814085 
L 316.671108 110.814085 
L 317.157534 110.340845 
L 317.64396 110.311268 
L 318.130386 107.506338 
L 318.616812 110.814085 
L 319.589664 110.493662 
L 320.07609 108.975352 
L 320.562516 110.291549 
L 321.048941 110.814085 
L 322.021793 110.814085 
L 322.508219 110.148592 
L 322.994645 110.183099 
L 323.481071 106.66831 
M 324.453923 110.715493 
L 324.940349 110.676056 
L 325.426775 110.814085 
L 325.9132 110.814085 
L 326.399626 110.449296 
L 326.886052 110.784507 
L 327.372478 109.670423 
L 327.858904 110.799296 
L 329.318182 110.814085 
L 329.804608 106.20493 
L 330.291034 110.365493 
L 330.77746 109.251408 
L 331.263885 110.459155 
L 331.750311 110.814085 
L 332.236737 110.814085 
L 332.723163 110.252113 
L 333.209589 110.814085 
L 334.182441 110.814085 
L 334.668867 106.722535 
M 335.641719 110.040141 
L 336.128144 109.492958 
L 336.61457 109.81338 
L 337.100996 110.814085 
L 338.073848 110.814085 
L 338.560274 109.088732 
L 339.0467 108.29507 
L 339.533126 110.192958 
L 340.019552 110.700704 
L 340.505978 109.364789 
L 340.992403 109.823239 
L 341.478829 110.015493 
L 341.965255 108.433099 
L 342.451681 110.350704 
L 343.424533 110.804225 
L 343.910959 110.814085 
L 344.883811 107.688732 
L 345.370237 110.814085 
L 345.856663 110.814085 
L 346.343088 110.28662 
L 346.829514 110.685915 
L 347.31594 110.567606 
L 347.802366 110.814085 
L 351.693773 110.814085 
L 352.180199 109.246479 
L 352.666625 108.76831 
L 353.153051 106.214789 
L 353.639477 110.109155 
L 354.125903 110.63662 
L 354.612329 110.656338 
L 355.098755 110.814085 
L 356.071606 110.814085 
L 356.558032 109.399296 
L 357.044458 110.814085 
L 360.935866 110.814085 
L 361.422291 110.439437 
L 361.908717 109.665493 
L 362.395143 110.814085 
L 362.881569 110.814085 
L 363.367995 108.502113 
L 363.854421 110.814085 
L 364.827273 110.814085 
L 365.313699 108.832394 
L 365.800125 109.167606 
L 366.28655 108.88169 
L 366.772976 106.367606 
L 367.259402 110.735211 
L 368.71868 110.764789 
L 370.177958 110.814085 
L 374.069365 110.814085 
L 374.555791 110.414789 
L 375.042217 110.814085 
L 378.447198 110.814085 
L 378.933624 109.788732 
L 379.42005 107.412676 
L 379.906476 110.695775 
L 380.392902 110.094366 
L 380.879328 110.814085 
L 389.148568 110.814085 
L 389.634994 110.069718 
L 390.12142 106.387324 
L 390.607846 110.276761 
L 391.094271 110.814085 
L 394.499253 110.814085 
L 395.472105 110.424648 
L 395.958531 110.814085 
L 396.444956 110.814085 
L 397.417808 110.035211 
L 397.904234 110.814085 
L 398.877086 110.582394 
L 399.363512 110.814085 
L 399.849938 110.390141 
L 400.336364 108.137324 
L 400.82279 107.585211 
L 401.309215 110.469014 
L 401.795641 110.814085 
L 402.282067 110.814085 
L 402.768493 110.63169 
L 404.227771 110.814085 
L 407.632752 110.735211 
L 408.119178 110.587324 
L 408.605604 110.814085 
L 410.064882 110.814085 
L 410.551308 107.062676 
L 411.037733 110.75493 
L 412.010585 110.814085 
L 412.497011 110.685915 
L 412.983437 110.814085 
L 416.388418 110.814085 
L 416.874844 109.552113 
M 417.847696 110.814085 
L 419.306974 110.814085 
L 419.7934 110.261972 
L 420.279826 110.720423 
L 421.252677 110.814085 
L 421.739103 110.814085 
L 422.225529 109.966197 
L 422.711955 108.516901 
L 423.198381 109.473239 
L 423.684807 110.814085 
L 424.171233 110.814085 
L 424.657659 108.403521 
L 425.144085 109.81338 
L 425.630511 110.814085 
L 426.116936 110.478873 
L 426.603362 110.28662 
L 427.089788 110.661268 
L 427.576214 110.814085 
L 429.521918 110.814085 
L 430.008344 109.645775 
L 430.49477 110.064789 
L 430.981196 110.685915 
L 431.954047 110.814085 
L 432.440473 110.557746 
L 432.926899 110.814085 
L 433.413325 108.723944 
L 433.899751 108.477465 
M 434.872603 110.814085 
L 435.845455 110.814085 
L 435.845455 110.814085 
" style="fill:none;opacity:0.65;stroke:#0000ff;stroke-linecap:square;stroke-width:1.5;"/>
   </g>
   <g id="patch_3">
    <path d="M 63 320.4 
L 63 43.2 
" style="fill:none;stroke:#000000;stroke-linecap:square;stroke-linejoin:miter;stroke-width:0.8;"/>
   </g>
   <g id="patch_4">
    <path d="M 453.6 320.4 
L 453.6 43.2 
" style="fill:none;stroke:#000000;stroke-linecap:square;stroke-linejoin:miter;stroke-width:0.8;"/>
   </g>
   <g id="patch_5">
    <path d="M 63 320.4 
L 453.6 320.4 
" style="fill:none;stroke:#000000;stroke-linecap:square;stroke-linejoin:miter;stroke-width:0.8;"/>
   </g>
   <g id="patch_6">
    <path d="M 63 43.2 
L 453.6 43.2 
" style="fill:none;stroke:#000000;stroke-linecap:square;stroke-linejoin:miter;stroke-width:0.8;"/>
   </g>
   <g id="text_19">
    <!-- Daily precipitation - mm - before and after checks -->
    <defs>
     <path d="M 48.6875 27.296875 
Q 48.6875 37.203125 44.609375 42.84375 
Q 40.53125 48.484375 33.40625 48.484375 
Q 26.265625 48.484375 22.1875 42.84375 
Q 18.109375 37.203125 18.109375 27.296875 
Q 18.109375 17.390625 22.1875 11.75 
Q 26.265625 6.109375 33.40625 6.109375 
Q 40.53125 6.109375 44.609375 11.75 
Q 48.6875 17.390625 48.6875 27.296875 
z
M 18.109375 46.390625 
Q 20.953125 51.265625 25.265625 53.625 
Q 29.59375 56 35.59375 56 
Q 45.5625 56 51.78125 48.09375 
Q 58.015625 40.1875 58.015625 27.296875 
Q 58.015625 14.40625 51.78125 6.484375 
Q 45.5625 -1.421875 35.59375 -1.421875 
Q 29.59375 -1.421875 25.265625 0.953125 
Q 20.953125 3.328125 18.109375 8.203125 
L 18.109375 0 
L 9.078125 0 
L 9.078125 75.984375 
L 18.109375 75.984375 
z
" id="DejaVuSans-62"/>
     <path d="M 37.109375 75.984375 
L 37.109375 68.5 
L 28.515625 68.5 
Q 23.6875 68.5 21.796875 66.546875 
Q 19.921875 64.59375 19.921875 59.515625 
L 19.921875 54.6875 
L 34.71875 54.6875 
L 34.71875 47.703125 
L 19.921875 47.703125 
L 19.921875 0 
L 10.890625 0 
L 10.890625 47.703125 
L 2.296875 47.703125 
L 2.296875 54.6875 
L 10.890625 54.6875 
L 10.890625 58.5 
Q 10.890625 67.625 15.140625 71.796875 
Q 19.390625 75.984375 28.609375 75.984375 
z
" id="DejaVuSans-66"/>
     <path d="M 45.40625 46.390625 
L 45.40625 75.984375 
L 54.390625 75.984375 
L 54.390625 0 
L 45.40625 0 
L 45.40625 8.203125 
Q 42.578125 3.328125 38.25 0.953125 
Q 33.9375 -1.421875 27.875 -1.421875 
Q 17.96875 -1.421875 11.734375 6.484375 
Q 5.515625 14.40625 5.515625 27.296875 
Q 5.515625 40.1875 11.734375 48.09375 
Q 17.96875 56 27.875 56 
Q 33.9375 56 38.25 53.625 
Q 42.578125 51.265625 45.40625 46.390625 
z
M 14.796875 27.296875 
Q 14.796875 17.390625 18.875 11.75 
Q 22.953125 6.109375 30.078125 6.109375 
Q 37.203125 6.109375 41.296875 11.75 
Q 45.40625 17.390625 45.40625 27.296875 
Q 45.40625 37.203125 41.296875 42.84375 
Q 37.203125 48.484375 30.078125 48.484375 
Q 22.953125 48.484375 18.875 42.84375 
Q 14.796875 37.203125 14.796875 27.296875 
z
" id="DejaVuSans-64"/>
     <path d="M 54.890625 33.015625 
L 54.890625 0 
L 45.90625 0 
L 45.90625 32.71875 
Q 45.90625 40.484375 42.875 44.328125 
Q 39.84375 48.1875 33.796875 48.1875 
Q 26.515625 48.1875 22.3125 43.546875 
Q 18.109375 38.921875 18.109375 30.90625 
L 18.109375 0 
L 9.078125 0 
L 9.078125 75.984375 
L 18.109375 75.984375 
L 18.109375 46.1875 
Q 21.34375 51.125 25.703125 53.5625 
Q 30.078125 56 35.796875 56 
Q 45.21875 56 50.046875 50.171875 
Q 54.890625 44.34375 54.890625 33.015625 
z
" id="DejaVuSans-68"/>
     <path d="M 9.078125 75.984375 
L 18.109375 75.984375 
L 18.109375 31.109375 
L 44.921875 54.6875 
L 56.390625 54.6875 
L 27.390625 29.109375 
L 57.625 0 
L 45.90625 0 
L 18.109375 26.703125 
L 18.109375 0 
L 9.078125 0 
z
" id="DejaVuSans-6b"/>
     <path d="M 44.28125 53.078125 
L 44.28125 44.578125 
Q 40.484375 46.53125 36.375 47.5 
Q 32.28125 48.484375 27.875 48.484375 
Q 21.1875 48.484375 17.84375 46.4375 
Q 14.5 44.390625 14.5 40.28125 
Q 14.5 37.15625 16.890625 35.375 
Q 19.28125 33.59375 26.515625 31.984375 
L 29.59375 31.296875 
Q 39.15625 29.25 43.1875 25.515625 
Q 47.21875 21.78125 47.21875 15.09375 
Q 47.21875 7.46875 41.1875 3.015625 
Q 35.15625 -1.421875 24.609375 -1.421875 
Q 20.21875 -1.421875 15.453125 -0.5625 
Q 10.6875 0.296875 5.421875 2 
L 5.421875 11.28125 
Q 10.40625 8.6875 15.234375 7.390625 
Q 20.0625 6.109375 24.8125 6.109375 
Q 31.15625 6.109375 34.5625 8.28125 
Q 37.984375 10.453125 37.984375 14.40625 
Q 37.984375 18.0625 35.515625 20.015625 
Q 33.0625 21.96875 24.703125 23.78125 
L 21.578125 24.515625 
Q 13.234375 26.265625 9.515625 29.90625 
Q 5.8125 33.546875 5.8125 39.890625 
Q 5.8125 47.609375 11.28125 51.796875 
Q 16.75 56 26.8125 56 
Q 31.78125 56 36.171875 55.265625 
Q 40.578125 54.546875 44.28125 53.078125 
z
" id="DejaVuSans-73"/>
    </defs>
    <g transform="translate(108.195 37.2)scale(0.12 -0.12)">
     <use xlink:href="#DejaVuSans-44"/>
     <use x="77.001953" xlink:href="#DejaVuSans-61"/>
     <use x="138.28125" xlink:href="#DejaVuSans-69"/>
     <use x="166.064453" xlink:href="#DejaVuSans-6c"/>
     <use x="193.847656" xlink:href="#DejaVuSans-79"/>
     <use x="253.027344" xlink:href="#DejaVuSans-20"/>
     <use x="284.814453" xlink:href="#DejaVuSans-70"/>
     <use x="348.291016" xlink:href="#DejaVuSans-72"/>
     <use x="389.373047" xlink:href="#DejaVuSans-65"/>
     <use x="450.896484" xlink:href="#DejaVuSans-63"/>
     <use x="505.876953" xlink:href="#DejaVuSans-69"/>
     <use x="533.660156" xlink:href="#DejaVuSans-70"/>
     <use x="597.136719" xlink:href="#DejaVuSans-69"/>
     <use x="624.919922" xlink:href="#DejaVuSans-74"/>
     <use x="664.128906" xlink:href="#DejaVuSans-61"/>
     <use x="725.408203" xlink:href="#DejaVuSans-74"/>
     <use x="764.617188" xlink:href="#DejaVuSans-69"/>
     <use x="792.400391" xlink:href="#DejaVuSans-6f"/>
     <use x="853.582031" xlink:href="#DejaVuSans-6e"/>
     <use x="916.960938" xlink:href="#DejaVuSans-20"/>
     <use x="948.748047" xlink:href="#DejaVuSans-2d"/>
     <use x="984.832031" xlink:href="#DejaVuSans-20"/>
     <use x="1016.619141" xlink:href="#DejaVuSans-6d"/>
     <use x="1114.03125" xlink:href="#DejaVuSans-6d"/>
     <use x="1211.443359" xlink:href="#DejaVuSans-20"/>
     <use x="1243.230469" xlink:href="#DejaVuSans-2d"/>
     <use x="1279.314453" xlink:href="#DejaVuSans-20"/>
     <use x="1311.101562" xlink:href="#DejaVuSans-62"/>
     <use x="1374.578125" xlink:href="#DejaVuSans-65"/>
     <use x="1436.101562" xlink:href="#DejaVuSans-66"/>
     <use x="1471.306641" xlink:href="#DejaVuSans-6f"/>
     <use x="1532.488281" xlink:href="#DejaVuSans-72"/>
     <use x="1573.570312" xlink:href="#DejaVuSans-65"/>
     <use x="1635.09375" xlink:href="#DejaVuSans-20"/>
     <use x="1666.880859" xlink:href="#DejaVuSans-61"/>
     <use x="1728.160156" xlink:href="#DejaVuSans-6e"/>
     <use x="1791.539062" xlink:href="#DejaVuSans-64"/>
     <use x="1855.015625" xlink:href="#DejaVuSans-20"/>
     <use x="1886.802734" xlink:href="#DejaVuSans-61"/>
     <use x="1948.082031" xlink:href="#DejaVuSans-66"/>
     <use x="1983.271484" xlink:href="#DejaVuSans-74"/>
     <use x="2022.480469" xlink:href="#DejaVuSans-65"/>
     <use x="2084.003906" xlink:href="#DejaVuSans-72"/>
     <use x="2125.117188" xlink:href="#DejaVuSans-20"/>
     <use x="2156.904297" xlink:href="#DejaVuSans-63"/>
     <use x="2211.884766" xlink:href="#DejaVuSans-68"/>
     <use x="2275.263672" xlink:href="#DejaVuSans-65"/>
     <use x="2336.787109" xlink:href="#DejaVuSans-63"/>
     <use x="2391.767578" xlink:href="#DejaVuSans-6b"/>
     <use x="2449.677734" xlink:href="#DejaVuSans-73"/>
    </g>
   </g>
   <g id="legend_1">
    <g id="patch_7">
     <path d="M 344.532813 80.55625 
L 446.6 80.55625 
Q 448.6 80.55625 448.6 78.55625 
L 448.6 50.2 
Q 448.6 48.2 446.6 48.2 
L 344.532813 48.2 
Q 342.532813 48.2 342.532813 50.2 
L 342.532813 78.55625 
Q 342.532813 80.55625 344.532813 80.55625 
z
" style="fill:#ffffff;opacity:0.8;stroke:#cccccc;stroke-linejoin:miter;"/>
    </g>
    <g id="line2d_48">
     <path d="M 346.532813 56.298437 
L 366.532813 56.298437 
" style="fill:none;opacity:0.65;stroke:#ff0000;stroke-linecap:square;stroke-width:1.5;"/>
    </g>
    <g id="line2d_49"/>
    <g id="text_20">
     <!-- before checks -->
     <g transform="translate(374.532813 59.798437)scale(0.1 -0.1)">
      <use xlink:href="#DejaVuSans-62"/>
      <use x="63.476562" xlink:href="#DejaVuSans-65"/>
      <use x="125" xlink:href="#DejaVuSans-66"/>
      <use x="160.205078" xlink:href="#DejaVuSans-6f"/>
      <use x="221.386719" xlink:href="#DejaVuSans-72"/>
      <use x="262.46875" xlink:href="#DejaVuSans-65"/>
      <use x="323.992188" xlink:href="#DejaVuSans-20"/>
      <use x="355.779297" xlink:href="#DejaVuSans-63"/>
      <use x="410.759766" xlink:href="#DejaVuSans-68"/>
      <use x="474.138672" xlink:href="#DejaVuSans-65"/>
      <use x="535.662109" xlink:href="#DejaVuSans-63"/>
      <use x="590.642578" xlink:href="#DejaVuSans-6b"/>
      <use x="648.552734" xlink:href="#DejaVuSans-73"/>
     </g>
    </g>
    <g id="line2d_50">
     <path d="M 346.532813 70.976562 
L 366.532813 70.976562 
" style="fill:none;opacity:0.65;stroke:#0000ff;stroke-linecap:square;stroke-width:1.5;"/>
    </g>
    <g id="line2d_51"/>
    <g id="text_21">
     <!-- after checks -->
     <g transform="translate(374.532813 74.476562)scale(0.1 -0.1)">
      <use xlink:href="#DejaVuSans-61"/>
      <use x="61.279297" xlink:href="#DejaVuSans-66"/>
      <use x="96.46875" xlink:href="#DejaVuSans-74"/>
      <use x="135.677734" xlink:href="#DejaVuSans-65"/>
      <use x="197.201172" xlink:href="#DejaVuSans-72"/>
      <use x="238.314453" xlink:href="#DejaVuSans-20"/>
      <use x="270.101562" xlink:href="#DejaVuSans-63"/>
      <use x="325.082031" xlink:href="#DejaVuSans-68"/>
      <use x="388.460938" xlink:href="#DejaVuSans-65"/>
      <use x="449.984375" xlink:href="#DejaVuSans-63"/>
      <use x="504.964844" xlink:href="#DejaVuSans-6b"/>
      <use x="562.875" xlink:href="#DejaVuSans-73"/>
     </g>
    </g>
   </g>
  </g>
 </g>
 <defs>
  <clipPath id="pcfd7a74287">
   <rect height="277.2" width="390.6" x="63" y="43.2"/>
  </clipPath>
 </defs>
</svg>
